<?xml version="1.0" standalone="no"?>
<!DOCTYPE svg PUBLIC "-//W3C//DTD SVG 20010904//EN"
 "http://www.w3.org/TR/2001/REC-SVG-20010904/DTD/svg10.dtd">
<svg version="1.0" xmlns="http://www.w3.org/2000/svg"
 width="1260.000000pt" height="848.000000pt" viewBox="0 0 1260.000000 848.000000"
 preserveAspectRatio="xMidYMid meet">

<g transform="translate(0.000000,848.000000) scale(0.100000,-0.100000)"
fill="#000000" stroke="none">
<path d="M3223 7818 c-6 -18 -84 -224 -173 -458 -352 -923 -464 -1217 -558
-1465 -33 -88 -77 -200 -96 -250 -20 -49 -36 -91 -36 -92 0 -2 42 -3 93 -3
l93 0 21 58 c12 31 56 149 98 262 42 113 104 279 137 370 33 91 63 168 67 173
4 4 54 -113 111 -260 56 -148 133 -342 169 -433 l67 -165 503 -3 c476 -2 503
-1 498 15 -2 10 -89 241 -192 513 -103 272 -254 675 -336 895 -138 368 -201
534 -295 783 l-36 92 -62 0 c-62 0 -63 0 -73 -32z"/>
<path d="M4656 7744 c-3 -9 -6 -33 -6 -54 0 -75 -30 -70 391 -70 l379 0 0
-1035 0 -1036 83 3 82 3 -1 963 c0 530 3 957 7 950 4 -7 63 -157 132 -333 69
-176 196 -498 282 -715 86 -217 199 -501 250 -630 l93 -235 491 -3 c299 -1
491 1 491 7 0 10 -85 223 -180 451 -29 69 -95 229 -147 355 -51 127 -120 293
-153 370 -32 77 -110 266 -173 420 -63 154 -145 353 -183 443 l-68 162 -882 0
c-795 0 -882 -2 -888 -16z"/>
<path d="M9867 7748 c-2 -7 -88 -220 -190 -473 -102 -253 -268 -667 -370 -920
-102 -253 -215 -533 -251 -623 -36 -89 -66 -167 -66 -172 0 -7 33 -10 91 -8
l91 3 119 305 c66 168 173 440 239 605 65 165 143 363 173 440 136 348 228
582 237 600 5 12 9 -365 9 -967 l1 -988 460 0 460 0 0 823 c1 452 0 918 0
1035 l-1 212 381 0 380 0 0 70 0 70 -879 0 c-694 0 -880 -3 -884 -12z"/>
<path d="M11009 5153 l-44 -48 44 -3 c44 -3 67 8 146 73 l30 25 -66 0 c-66 0
-66 0 -110 -47z"/>
<path d="M809 4963 c-26 -54 -76 -158 -112 -230 l-66 -133 64 0 65 0 22 45 22
45 121 0 121 0 22 -45 22 -45 65 0 c36 0 65 3 65 8 -1 4 -52 106 -115 227
l-113 220 -69 3 -68 3 -46 -98z m191 -175 c0 -5 -36 -8 -80 -8 l-80 0 43 86
42 86 37 -79 c21 -43 38 -81 38 -85z"/>
<path d="M1526 4878 c-3 -101 -5 -204 -5 -230 l1 -48 194 0 194 0 0 45 0 45
-130 0 -130 0 0 185 0 185 -59 0 -59 0 -6 -182z"/>
<path d="M2230 4830 l0 -230 205 0 205 0 0 29 c0 61 1 61 -151 61 l-139 0 0
50 0 50 120 0 120 0 0 45 0 45 -120 0 -120 0 0 45 0 45 135 0 135 0 0 45 0 45
-195 0 -195 0 0 -230z"/>
<path d="M2939 5043 c5 -10 44 -60 85 -112 43 -53 73 -98 69 -105 -4 -6 -44
-57 -90 -113 -46 -56 -83 -104 -83 -107 0 -3 31 -6 69 -6 l69 0 56 75 c31 41
60 75 64 74 4 0 33 -34 65 -75 l57 -74 71 0 c82 0 84 -10 -21 120 -42 52 -80
101 -84 108 -7 12 24 57 132 190 l34 42 -68 0 -69 0 -54 -70 c-29 -38 -56 -70
-59 -70 -4 1 -31 32 -61 70 l-54 70 -69 0 c-62 0 -68 -2 -59 -17z"/>
<path d="M3803 4830 l-111 -230 64 0 65 0 19 45 20 46 122 -3 123 -3 23 -42
23 -43 65 0 65 0 -117 230 -117 230 -66 0 -66 0 -112 -230z m197 83 c7 -16 23
-52 36 -80 l24 -53 -80 0 -79 0 37 80 c20 43 40 79 43 80 3 0 12 -12 19 -27z"/>
<path d="M4580 4830 l0 -230 64 0 64 0 -4 138 -5 137 133 -138 133 -138 53 1
52 0 0 230 0 230 -65 0 -65 0 0 -135 0 -135 -126 135 -126 135 -54 0 -54 0 0
-230z"/>
<path d="M5430 4830 l0 -230 153 0 c214 0 294 28 348 123 33 58 33 154 -1 215
-53 94 -133 122 -347 122 l-153 0 0 -230z m301 130 c19 -5 48 -24 65 -41 25
-26 29 -38 29 -89 0 -51 -4 -63 -28 -88 -34 -36 -91 -52 -181 -52 l-66 0 0
133 c0 74 3 137 7 140 10 11 133 8 174 -3z"/>
<path d="M6297 5054 c-4 -4 -7 -108 -7 -231 l0 -223 65 0 65 0 0 65 0 65 53 0
53 0 48 -65 48 -65 69 0 70 0 -47 63 c-26 34 -51 67 -56 73 -6 8 3 19 24 32
43 27 58 53 65 112 7 62 -22 118 -81 151 -38 22 -54 24 -201 27 -88 2 -163 0
-168 -4z m286 -95 c30 -16 37 -28 37 -66 0 -52 -37 -73 -126 -73 l-74 0 0 75
0 75 71 0 c39 0 80 -5 92 -11z"/>
<path d="M7140 4837 c-61 -124 -110 -227 -110 -231 0 -3 29 -6 64 -6 l63 0 17
45 18 45 124 0 124 0 22 -45 22 -45 63 0 c35 0 63 3 63 8 0 4 -52 106 -114
227 l-114 220 -66 3 -67 3 -109 -224z m208 49 c53 -113 55 -106 -33 -106 -58
0 -76 3 -72 13 13 33 70 157 72 157 2 0 17 -29 33 -64z"/>
<path d="M8380 4830 l0 -230 60 0 59 0 3 128 3 127 74 -107 c100 -145 102
-145 202 2 l74 109 3 -129 3 -130 59 0 60 0 0 230 0 231 -57 -3 -57 -3 -90
-137 c-50 -75 -93 -137 -96 -136 -3 0 -46 61 -96 136 l-91 137 -57 3 -56 3 0
-231z"/>
<path d="M9392 4835 c-62 -124 -112 -228 -112 -230 0 -3 29 -5 64 -5 l64 0 18
45 17 45 123 0 124 0 22 -45 22 -45 67 0 67 0 -117 230 -116 230 -65 0 -66 0
-112 -225z m222 23 l35 -78 -80 0 c-45 0 -79 4 -77 8 35 86 73 161 79 155 4
-5 23 -43 43 -85z"/>
<path d="M10170 4831 l0 -231 60 0 60 0 0 65 0 65 54 0 53 0 49 -65 49 -65 68
0 67 0 -52 71 -51 71 36 32 c46 40 57 64 57 124 0 61 -29 107 -85 136 -35 18
-61 21 -202 24 l-163 3 0 -230z m289 124 c33 -16 45 -52 31 -89 -13 -36 -40
-46 -126 -46 l-77 0 7 46 c3 26 6 60 6 75 0 29 0 29 65 29 38 0 78 -6 94 -15z"/>
<path d="M10963 4830 l2 -230 63 0 62 0 0 230 0 230 -64 0 -65 0 2 -230z"/>
<path d="M11460 4830 l0 -230 60 0 59 0 3 136 3 136 124 -136 123 -136 54 0
54 0 0 230 0 230 -60 0 -60 0 0 -137 0 -138 -131 138 -131 137 -49 0 -49 0 0
-230z"/>
<path d="M1711 3833 c-62 -164 -171 -451 -242 -638 -71 -187 -173 -455 -227
-595 l-98 -255 -407 -3 -407 -2 0 -70 0 -70 1055 0 1055 0 0 70 0 70 -555 0
c-305 0 -555 1 -555 3 0 2 27 75 60 163 34 87 117 308 185 489 69 182 176 465
238 630 l114 300 958 0 957 0 20 -55 c11 -30 49 -129 83 -220 35 -91 116 -302
180 -470 64 -168 138 -361 165 -430 70 -182 150 -396 150 -403 0 -4 -216 -7
-480 -7 l-480 0 0 -70 0 -70 1433 0 1432 0 -3 70 -4 70 -374 0 -374 0 0 318
c-1 174 -2 577 -3 895 l-2 577 -82 0 -83 0 -2 -871 -3 -871 -82 218 c-111 299
-475 1263 -508 1349 -15 39 -36 94 -47 123 l-19 52 -495 0 c-343 0 -494 -3
-494 -11 0 -6 5 -19 10 -30 11 -19 -3 -19 -895 -19 -498 0 -905 2 -905 4 0 3
4 16 10 30 l10 26 -88 0 -88 0 -113 -297z"/>
<path d="M6941 4078 c11 -29 51 -127 88 -218 38 -91 202 -500 366 -910 164
-410 299 -746 299 -746 1 -1 32 -3 70 -5 l68 -4 24 60 c123 315 633 1602 694
1750 l48 120 -85 3 c-48 2 -90 -1 -94 -5 -4 -4 -60 -141 -124 -303 -64 -162
-118 -296 -119 -297 -1 -2 -58 134 -126 302 l-124 305 -503 0 -503 0 21 -52z"/>
<path d="M9950 3235 l0 -895 -380 0 -380 0 0 -70 0 -70 348 0 c1435 -2 2084
-1 2087 2 2 1 5 32 7 68 l3 65 -383 3 -382 2 0 833 c0 457 1 860 0 895 l0 62
-460 0 -460 0 0 -895z"/>
<path d="M7673 1683 c-18 -6 -16 -48 1 -62 11 -9 20 -9 34 -2 53 28 20 87 -35
64z"/>
<path d="M5333 1583 c-40 -8 -73 -48 -73 -91 0 -52 27 -75 118 -101 64 -20 72
-24 72 -47 0 -45 -98 -57 -157 -18 -20 13 -23 12 -33 -7 -23 -42 44 -74 143
-67 52 4 64 9 88 36 31 35 35 57 18 96 -11 24 -48 44 -128 68 -86 26 -79 78
11 78 27 0 58 -5 68 -10 15 -8 21 -6 30 9 15 28 14 31 -25 47 -33 13 -84 16
-132 7z"/>
<path d="M8219 1580 c-79 -23 -124 -91 -117 -175 5 -65 37 -111 92 -136 68
-31 168 -20 203 23 11 12 9 18 -7 33 -18 16 -21 17 -44 1 -36 -23 -107 -21
-139 4 -59 47 -56 143 7 181 38 23 103 25 134 3 21 -15 25 -15 42 1 24 22 18
32 -34 56 -43 19 -93 23 -137 9z"/>
<path d="M9454 1576 c-60 -26 -82 -91 -46 -135 10 -13 48 -31 91 -45 84 -25
106 -46 78 -73 -23 -23 -100 -23 -143 0 -30 16 -32 15 -42 -8 -13 -27 -5 -36
47 -54 75 -25 178 -4 202 41 6 10 9 35 7 56 -4 45 -40 73 -122 91 -60 13 -81
34 -65 63 14 25 68 32 116 15 44 -15 53 -10 53 28 0 31 -121 45 -176 21z"/>
<path d="M2172 1418 l3 -163 100 0 c113 0 147 7 175 35 28 28 26 84 -4 115
-20 19 -21 25 -10 37 7 7 16 28 20 45 5 27 1 37 -24 63 -30 30 -31 30 -146 30
l-116 0 2 -162z m212 90 c21 -35 -4 -53 -78 -56 l-66 -3 0 41 0 41 66 -3 c51
-2 70 -7 78 -20z m4 -124 c26 -18 28 -37 6 -58 -11 -12 -35 -16 -85 -16 l-69
0 0 45 0 45 63 0 c40 0 70 -5 85 -16z"/>
<path d="M2850 1415 l0 -165 30 0 30 0 0 165 0 165 -30 0 -30 0 0 -165z"/>
<path d="M3312 1418 l3 -163 128 -3 128 -3 -3 28 -3 28 -92 3 -93 3 0 44 0 45
81 0 c78 0 80 1 77 23 -3 20 -9 22 -80 25 l-78 3 0 39 0 40 90 0 c89 0 90 0
90 25 l0 25 -125 0 -125 0 2 -162z"/>
<path d="M3942 1418 l3 -163 30 0 30 0 5 107 5 107 90 -110 c63 -77 96 -109
111 -109 21 0 22 5 25 113 2 63 2 137 1 165 -4 50 -5 52 -33 52 l-28 0 -3
-105 -3 -105 -88 105 c-76 90 -93 105 -118 105 l-29 0 2 -162z"/>
<path d="M4650 1415 l0 -165 125 0 125 0 0 30 0 30 -95 0 -95 0 0 45 0 45 80
0 c79 0 80 0 80 25 0 25 -1 25 -80 25 l-80 0 0 40 0 40 90 0 c89 0 90 0 90 25
l0 25 -120 0 -120 0 0 -165z"/>
<path d="M6322 1418 l3 -163 33 -3 32 -3 0 50 0 51 45 0 c41 0 46 -3 74 -44
31 -44 48 -56 82 -56 25 0 25 2 -16 62 -33 50 -34 52 -15 65 23 16 50 64 50
88 0 32 -33 86 -61 100 -19 10 -60 15 -129 15 l-100 0 2 -162z m196 96 c25
-17 29 -60 8 -89 -10 -13 -30 -20 -75 -23 l-61 -4 0 66 0 66 53 0 c31 0 61 -6
75 -16z"/>
<path d="M7018 1432 c-90 -196 -86 -182 -49 -182 26 0 34 6 51 40 l20 40 84 0
84 0 16 -40 c14 -36 19 -40 50 -40 l35 0 -77 165 -76 165 -35 0 -36 -1 -67
-147z m132 26 c12 -29 24 -59 27 -65 4 -10 -11 -13 -55 -13 l-60 0 26 65 c14
36 29 65 32 65 4 0 17 -24 30 -52z"/>
<path d="M7660 1414 l0 -165 33 3 32 3 3 163 3 162 -36 0 -35 0 0 -166z"/>
<path d="M8782 1418 l3 -163 125 0 125 0 0 25 c0 25 -1 25 -98 28 l-98 3 3 42
3 42 83 3 c79 3 83 4 80 25 -3 20 -9 22 -85 25 l-83 3 0 39 0 40 95 0 c95 0
95 0 95 25 l0 25 -125 0 -125 0 2 -162z"/>
</g>
</svg>
